<?xml version="1.0" encoding="UTF-8" standalone="no"?>
<!-- Generator: Adobe Illustrator 21.1.0, SVG Export Plug-In . SVG Version: 6.00 Build 0)  -->

<svg
   xmlns:dc="http://purl.org/dc/elements/1.1/"
   xmlns:cc="http://creativecommons.org/ns#"
   xmlns:rdf="http://www.w3.org/1999/02/22-rdf-syntax-ns#"
   xmlns:svg="http://www.w3.org/2000/svg"
   xmlns="http://www.w3.org/2000/svg"
   xmlns:sodipodi="http://sodipodi.sourceforge.net/DTD/sodipodi-0.dtd"
   xmlns:inkscape="http://www.inkscape.org/namespaces/inkscape"
   version="1.1"
   width="237"
   height="73"
   id="svg4"
   sodipodi:docname="Arm_logo_2017.svg"
   inkscape:version="0.92.5 (0.92.5+68)">
  <metadata
     id="metadata10">
    <rdf:RDF>
      <cc:Work
         rdf:about="">
        <dc:format>image/svg+xml</dc:format>
        <dc:type
           rdf:resource="http://purl.org/dc/dcmitype/StillImage" />
      </cc:Work>
    </rdf:RDF>
  </metadata>
  <defs
     id="defs8" />
  <sodipodi:namedview
     pagecolor="#ffffff"
     bordercolor="#666666"
     borderopacity="1"
     objecttolerance="10"
     gridtolerance="10"
     guidetolerance="10"
     inkscape:pageopacity="0"
     inkscape:pageshadow="2"
     inkscape:window-width="1366"
     inkscape:window-height="725"
     id="namedview6"
     showgrid="false"
     inkscape:zoom="1.5654008"
     inkscape:cx="118.5"
     inkscape:cy="60.774933"
     inkscape:window-x="0"
     inkscape:window-y="0"
     inkscape:window-maximized="1"
     inkscape:current-layer="svg4" />
  <path
     fill="#0091BD"
     d="m53.6 2.35h15.9v68.1h-15.9v-7.1c-7 8.1-15.5 9.2-20.4 9.2-21 0-33-17.5-33-36.2 0-22.2 15.2-35.8 33.2-35.8 5 0 13.8 1.3 20.2 9.7zm-37.1 34.4c0 11.7 7.4 21.7 18.9 21.7 10 0 19.3-7.3 19.3-21.5 0-14.9-9.2-22-19.3-22-11.5-0.1-18.9 9.7-18.9 21.8zm71.9-34.4h15.9v6.1c1.8-2.1 4.4-4.4 6.6-5.7 3.1-1.8 6.1-2.3 9.7-2.3 3.9 0 8.1 0.6 12.5 3.2l-6.5 14.4c-3.6-2.3-6.5-2.4-8.1-2.4-3.4 0-6.8 0.5-9.9 3.7-4.4 4.7-4.4 11.2-4.4 15.7v35.4h-15.9zm54.9 0h15.9v6.3c5.3-6.5 11.6-8.1 16.8-8.1 7.1 0 13.8 3.4 17.6 10 5.7-8.1 14.2-10 20.2-10 8.3 0 15.5 3.9 19.4 10.7 1.3 2.3 3.6 7.3 3.6 17.2v42.1h-15.9v-37.4c0-7.6-0.8-10.7-1.5-12.1-1-2.6-3.4-6-9.1-6-3.9 0-7.3 2.1-9.4 5-2.8 3.9-3.1 9.7-3.1 15.5v35.1h-15.9v-37.5c0-7.6-0.8-10.7-1.5-12.1-1-2.6-3.4-6-9.1-6-3.9 0-7.3 2.1-9.4 5-2.8 3.9-3.1 9.7-3.1 15.5v35.1h-15.5z"
     id="path2" />
  <path
     style="fill:#0091bd"
     d="M -2.3730469 -96.548828 C -20.373047 -96.548828 -35.574219 -82.95 -35.574219 -60.75 C -35.574219 -42.05 -23.574219 -24.548828 -2.5742188 -24.548828 C 2.3257813 -24.548828 10.826172 -25.65 17.826172 -33.75 L 17.826172 -26.650391 L 33.726562 -26.650391 L 33.726562 -94.75 L 17.826172 -94.75 L 17.826172 -86.849609 C 11.426172 -95.249609 2.6269531 -96.548828 -2.3730469 -96.548828 z M -0.37304688 -82.150391 C 9.7269531 -82.150391 18.925781 -75.050391 18.925781 -60.150391 C 18.925781 -45.950391 9.6269531 -38.650391 -0.37304688 -38.650391 C -11.873047 -38.650391 -19.273438 -48.649609 -19.273438 -60.349609 C -19.273437 -72.449609 -11.873047 -82.250391 -0.37304688 -82.150391 z "
     id="path833" />
  <path
     style="fill:#0091bd"
     d="m 52.626415,-94.74973 h 15.9 v 6.1 c 1.8,-2.1 4.4,-4.4 6.6,-5.7 3.1,-1.8 6.1,-2.3 9.7,-2.3 3.9,0 8.1,0.6 12.5,3.2 l -6.5,14.4 c -3.6,-2.3 -6.5,-2.4 -8.1,-2.4 -3.4,0 -6.8,0.5 -9.9,3.7 -4.4,4.7 -4.4,11.2 -4.4,15.7 v 35.4 h -15.9 z"
     id="path829" />
  <path
     style="fill:#0091bd"
     d="m 107.52642,-94.74973 h 15.9 v 6.3 c 5.3,-6.5 11.6,-8.1 16.8,-8.1 7.1,0 13.8,3.4 17.6,10 5.7,-8.1 14.2,-10 20.2,-10 8.3,0 15.5,3.9 19.4,10.7 1.3,2.3 3.6,7.3 3.6,17.2 v 42.1 h -15.9 v -37.4 c 0,-7.6 -0.8,-10.7 -1.5,-12.1 -1,-2.6 -3.4,-6 -9.1,-6 -3.9,0 -7.3,2.1 -9.4,5 -2.8,3.9 -3.1,9.7 -3.1,15.5 v 35.1 h -15.9 v -37.5 c 0,-7.6 -0.8,-10.7 -1.5,-12.1 -1,-2.6 -3.4,-6 -9.1,-6 -3.9,0 -7.3,2.1 -9.4,5 -2.8,3.9 -3.1,9.7 -3.1,15.5 v 35.1 h -15.5 z"
     id="path825" />
</svg>
